<?xml version="1.0" encoding="UTF-8"?>
<svg xmlns="http://www.w3.org/2000/svg" viewBox="0 0 31 7">
    <style>
        path { fill: black; }
        @media (prefers-color-scheme: dark) { path { fill: white; } }
    </style>
    <path d="M3.65 3.05h1.68c.12 0 .48 0 .48-.35 0-.23-.2-.23-.4-.23H2.62c-.2 0-.6 0-1.03.47-.34.36-.62.84-.62.9 0 0 0 .1.13.1.08 0 .1-.05.16-.13.5-.75 1.07-.75 1.27-.75h.83l-.97 3.2c-.06.1-.12.33-.12.36 0 .12.08.3.3.3.32 0 .37-.3.4-.45zm0 0"/>
    <path d="M15.8 3.5c.16 0 .35 0 .35-.2s-.2-.2-.33-.2H9.85c-.14 0-.33 0-.33.2s.2.2.33.2zm.02 1.94c.14 0 .33 0 .33-.2s-.2-.2-.35-.2H9.85c-.14 0-.33 0-.33.2s.2.2.33.2zm0 0"/>
    <path d="M20.75 6l1.06-1.03c1.56-1.38 2.15-1.9 2.15-2.9 0-1.15-.9-1.94-2.1-1.94-1.13 0-1.87.92-1.87 1.8 0 .55.5.55.53.55.18 0 .53-.1.53-.53 0-.25-.2-.5-.53-.5h-.13c.22-.65.77-1 1.35-1 .9 0 1.32.8 1.32 1.6s-.48 1.6-1.04 2.22L20.1 6.4c-.12.1-.12.13-.12.37h3.7l.27-1.74h-.23c-.07.3-.13.74-.24.9-.06.07-.72.07-.94.07zm0 0"/>
    <path d="M27.1 3.05h1.12c-.32 1.47-.42 1.9-.42 2.58 0 .14 0 .4.08.75.1.43.22.5.36.5.2 0 .42-.18.42-.38 0-.06 0-.08-.06-.22-.3-.72-.3-1.37-.3-1.65 0-.52.08-1.07.2-1.58h1.1c.16 0 .5 0 .5-.35 0-.23-.2-.23-.4-.23h-3.34c-.2 0-.6 0-1.03.47-.34.4-.6.84-.6.9 0 0 0 .1.12.1.08 0 .1-.05.16-.13.5-.75 1.07-.75 1.27-.75h.56c-.3 1.2-.84 2.4-1.26 3.3-.08.17-.08.18-.08.26 0 .2.15.28.27.28.3 0 .38-.3.5-.65.14-.46.14-.48.27-.98zm0 0"/>
</svg>
